<?xml version="1.0" standalone="no"?>
<!DOCTYPE svg PUBLIC "-//W3C//DTD SVG 1.0//EN" "http://www.w3.org/TR/2001/REC-SVG-20010904/DTD/svg10.dtd">
<svg xmlns="http://www.w3.org/2000/svg" xmlns:xlink="http://www.w3.org/1999/xlink" id="body_1" width="200" height="225">

<g transform="matrix(0.10000001 0 0 0.10000001 0 0)">
	<g transform="matrix(1 0 0 1 3.410605E-13 0)">
		<g transform="matrix(6.25 0 0 6.25 0 0)">
			<g transform="matrix(1 0 0 1 0 0)">
				<g transform="matrix(1 0 0 1 0 0)">
					<g>
						<g transform="matrix(1 0 0 1 0 0)">
						</g>
					</g>
					<g>
						<g transform="matrix(1 0 0 1 0 0)">
							<g>
                                <path d="M20.961 227.22L24.687 231.878L22.824 225.822C 22.358 223.02701 19.098 226.28801 20.960999 227.22M25.153 224.425C 26.55 226.754 27.948 229.08301 27.948 231.412C 27.948 234.673 30.743 236.07 33.071 237.001C 29.81 233.27501 27.946999 223.02701 25.153 224.425M204.017 26.929C 211.935 26.929 219.388 25.997002 227.773 27.86C 248.26799 32.984 265.50198 43.231003 277.147 57.671L277.147 57.671L309.753 109.84C 311.15 122.881996 313.94498 137.32199 313.479 153.159C 316.74 153.159 316.27402 148.50099 320 147.569C 316.274 156.885 314.41 168.53 313.479 182.038C 311.15 174.58499 313.479 163.40599 313.945 157.351C 310.68402 162.47499 308.821 158.748 308.821 156.41899C 309.28702 152.693 307.424 153.15799 306.026 151.76099C 300.902 147.10298 297.642 141.97899 293.91602 134.06099C 296.24503 128.006 296.71103 119.15599 289.25803 114.497986C 286.92902 113.10098 284.13403 110.77199 282.73703 107.04498C 280.87402 101.92098 277.61304 95.86598 278.54404 87.94798C 279.01004 85.61898 271.55704 93.07198 267.36505 89.81098C 249.19905 77.234985 231.03305 62.794983 209.14105 50.683983C 197.49605 50.683983 189.11206 46.49198 184.92004 41.36798C 181.19405 36.70998 183.98804 30.65498 189.57805 30.18898C 192.83905 30.18898 196.56505 29.25698 199.36005 31.12098C 199.82605 29.257978 201.68904 26.92898 204.01704 26.92898M157.904 16.215L158.83601 16.681C 163.49402 17.612999 165.82301 24.133999 170.94601 21.805C 170.94601 25.066 171.41202 28.326 170.48001 30.655C 169.08301 34.381 164.89001 34.381 161.63 34.381C 130.422 32.518 112.256004 45.56 93.159004 56.739C 88.035 60 82.44601 62.329 78.253006 66.520996C 58.224007 85.153 36.332005 102.38699 31.208008 136.85599L31.208008 136.85599L27.016008 175.051C 26.550009 179.243 21.892008 183.435 22.824009 188.55899L22.824009 188.55899L26.08401 211.383C 22.82301 208.122 20.960009 212.315 21.89201 214.178C 22.35801 215.575 24.22101 220.23299 27.01601 216.041C 30.74201 223.028 34.46901 236.536 39.59201 242.591C 55.42901 261.223 75.92401 277.991 92.69301 294.76C 96.88501 293.828 100.14601 293.828 101.07701 291.03302C 102.474014 293.82803 99.68001 296.62302 97.35101 297.08902C 104.804016 301.747 113.18801 305.93903 124.36701 306.87003C 138.807 307.80203 152.31502 310.131 164.891 313.39203C 171.412 311.52902 177.93301 310.59702 184.92001 310.13104C 187.24901 310.13104 188.64601 306.40503 191.44101 305.47305L191.44101 305.47305L191.90701 300.81506C 194.70201 305.00705 194.23601 299.41806 192.37302 296.62308C 195.63402 299.4181 196.56502 301.74707 197.96202 303.61008C 197.96202 302.21307 201.68802 297.08908 201.68903 303.14407L201.68903 303.14407L202.62003 297.08908C 204.01703 296.15707 204.48303 302.21307 205.88103 298.02008C 207.27803 293.8281 210.07303 297.08807 212.86803 295.69107C 211.93602 297.55408 212.40202 301.28107 215.66203 298.95206L215.66203 298.95206L219.38904 295.69107C 221.71803 301.28107 225.44403 298.95206 227.30704 298.02008C 247.80203 284.9781 268.29703 269.6071 287.86005 254.23608L287.86005 254.23608L287.39404 260.29108L289.72305 252.83807C 292.05206 255.16707 293.91504 253.30408 294.84705 251.90707C 297.64206 247.24907 301.36804 242.59108 307.42404 238.39908C 299.97104 258.42807 291.12103 274.26508 279.94205 287.30707L279.94205 287.30707L275.28406 292.89706C 275.28406 296.15805 274.35205 300.35007 270.62607 300.81506C 268.76306 301.28107 265.03607 299.88306 262.24207 302.67807C 260.84506 304.54108 265.50305 308.26807 261.77606 305.47308C 258.51508 303.14407 255.25507 305.47308 251.52806 306.4051C 248.73306 307.3371 253.39107 310.1311 254.32306 311.99408C 255.25507 313.8571 256.18607 315.7201 255.72105 318.05008L255.72105 318.05008L250.59706 312.46008C 244.54207 315.72107 240.81506 321.7761 235.69106 326.43408C 233.36206 328.2971 234.29405 331.55807 234.29405 334.35208C 231.03305 334.35208 227.30705 333.42007 225.44405 335.2841C 224.04704 337.1471 224.51204 339.94208 224.51204 342.7371C 219.85403 342.2711 219.38805 335.2841 215.19704 336.6811C 211.00504 337.6131 206.34703 338.0781 202.62004 340.40808C 205.41504 345.99808 197.96204 342.7371 198.89404 343.6681C 191.90704 339.4761 185.85205 336.2151 178.39905 339.0101C 162.56204 333.8861 142.99905 336.2151 128.55905 338.0791C 128.55905 335.7501 129.02505 333.4211 128.09305 332.9551C 127.16105 335.28412 124.36705 334.3521 124.833046 334.3521C 115.98305 328.29712 107.13304 324.5701 97.81705 319.4471C 89.433044 320.37912 81.514046 316.18613 79.18504 313.85712C 72.66405 307.80212 65.211044 311.0621 59.156044 309.66513C 46.114044 306.40414 41.456043 292.89612 40.058044 283.58112C 39.126045 278.92313 35.400043 277.06012 34.003044 277.52512C 27.948044 257.96213 18.632044 240.26212 11.179045 222.09612C 9.316045 217.43811 9.782044 212.78012 9.782044 207.65611C 12.111044 208.58812 14.440044 208.12212 13.974045 204.8621C 11.645044 189.4911 6.0560446 177.8461 4.4822693E-05 166.66711C 3.2610447 150.83011 3.726045 132.19812 11.179045 118.22411C 17.700045 105.64812 29.811045 99.126114 38.195045 88.41312C 40.990044 84.68712 40.990044 79.56312 43.785046 76.303116C 53.101044 66.987114 62.417046 57.205116 72.66405 48.821114C 77.322044 45.09511 82.91105 48.821114 89.89805 47.424114C 92.22705 39.040115 101.543045 31.587114 110.39305 33.916115C 114.11905 34.848114 121.57205 25.066114 123.901054 24.134115C 127.62705 22.737116 125.76405 27.860115 125.76405 31.121115C 134.61406 24.134115 146.72505 20.408115 157.90405 16.215115" stroke="none" fill="#FE0039" fill-rule="nonzero" />
							</g>
							<g transform="matrix(1 0 0 1 101.78003 90)">
								<g transform="matrix(1 0 0 1 0 0)">
									<g>
										<g transform="matrix(1 0 0 1 0 0)">
											<g>
												<g transform="matrix(1 0 0 1 0 0)">
													<g>
														<g transform="matrix(1 0 0 1 0 0)">
															<g>
																<g transform="matrix(1 0 0 1 0 0)">
																	<g transform="matrix(1 0 0 1 0 0)">
																		<g transform="matrix(5.209841 0 0 5.209841 -15.629522 177.13458)">
                                                                            <path transform="matrix(1 0 0 1 0 0)"  d="M25.35 0L18.5 0L12.4 -13.95L11.8 -13.95L9.35 -13.95L9.35 0L3 0L3 -34.55L11.15 -34.55C 19.483334 -34.55 23.65 -31.166666 23.65 -24.4C 23.65 -22.3 23.183334 -20.44 22.25 -18.82C 21.316668 -17.206667 19.916668 -15.983334 18.05 -15.15L18.05 -15.15L25.35 0zM11.45 -18.55C 13.416667 -18.55 14.843334 -19.016666 15.73 -19.95C 16.61 -20.883335 17.05 -22.366667 17.05 -24.4C 17.05 -26.300001 16.593334 -27.693335 15.68 -28.58C 14.76 -29.460001 13.25 -29.900002 11.15 -29.9L11.15 -29.9L9.35 -29.9L9.35 -18.55L11.45 -18.55z" stroke="none" fill="#FE0039" fill-rule="nonzero" />
																		</g>
																	</g>
																</g>
															</g>
														</g>
													</g>
												</g>
											</g>
											<g>
											</g>
										</g>
									</g>
								</g>
							</g>
						</g>
					</g>
				</g>
			</g>
		</g>
	</g>
</g>
</svg>